<svg width="23" height="24" viewBox="0 0 23 24" fill="none" xmlns="http://www.w3.org/2000/svg">
<path d="M23 11.9362C23 15.0941 21.7884 18.1227 19.6317 20.3556C17.4751 22.5886 14.55 23.8431 11.5 23.8431C8.45001 23.8431 5.52494 22.5886 3.36827 20.3556C1.2116 18.1227 0 15.0941 0 11.9362C0 8.77828 1.2116 5.74972 3.36827 3.51674C5.52494 1.28377 8.45001 0.0292969 11.5 0.0292969C14.55 0.0292969 17.4751 1.28377 19.6317 3.51674C21.7884 5.74972 23 8.77828 23 11.9362ZM11.5 5.23856C11.5 5.04119 11.4243 4.85191 11.2895 4.71235C11.1547 4.57279 10.9719 4.49438 10.7812 4.49438C10.5906 4.49438 10.4078 4.57279 10.273 4.71235C10.1382 4.85191 10.0625 5.04119 10.0625 5.23856V13.4245C10.0625 13.5557 10.0961 13.6846 10.1597 13.798C10.2233 13.9114 10.3147 14.0054 10.4247 14.0705L15.456 17.0472C15.6211 17.1396 15.8146 17.1615 15.995 17.1081C16.1755 17.0548 16.3287 16.9305 16.4218 16.7617C16.5149 16.593 16.5406 16.3933 16.4933 16.2052C16.4461 16.0172 16.3297 15.8557 16.169 15.7553L11.5 12.9929V5.23856Z" fill="black"/>
</svg>
