<svg width="49" height="49" viewBox="0 0 49 49" fill="none" xmlns="http://www.w3.org/2000/svg">
<mask id="mask0_117_552" style="mask-type:alpha" maskUnits="userSpaceOnUse" x="0" y="0" width="49" height="49">
<rect y="0.0517578" width="48.2474" height="48.2474" fill="#D9D9D9"/>
</mask>
<g mask="url(#mask0_117_552)">
<path d="M39.4021 42.2686L26.7372 29.6036C25.732 30.4077 24.5761 31.0443 23.2694 31.5134C21.9627 31.9825 20.5722 32.217 19.098 32.217C15.446 32.217 12.3554 30.9525 9.82647 28.4236C7.29616 25.8933 6.03101 22.8021 6.03101 19.15C6.03101 15.498 7.29616 12.4068 9.82647 9.87646C12.3554 7.34749 15.446 6.08301 19.098 6.08301C22.7501 6.08301 25.8413 7.34749 28.3716 9.87646C30.9005 12.4068 32.165 15.498 32.165 19.15C32.165 20.6242 31.9305 22.0147 31.4614 23.3214C30.9923 24.6281 30.3557 25.784 29.5516 26.7892L42.2166 39.4541L39.4021 42.2686ZM19.098 28.1964C21.6109 28.1964 23.7472 27.3172 25.5069 25.5589C27.2652 23.7992 28.1444 21.6629 28.1444 19.15C28.1444 16.6371 27.2652 14.5008 25.5069 12.7412C23.7472 10.9828 21.6109 10.1036 19.098 10.1036C16.5851 10.1036 14.4488 10.9828 12.6891 12.7412C10.9308 14.5008 10.0516 16.6371 10.0516 19.15C10.0516 21.6629 10.9308 23.7992 12.6891 25.5589C14.4488 27.3172 16.5851 28.1964 19.098 28.1964Z" fill="#737373"/>
</g>
</svg>
