<svg width="24" height="24" viewBox="0 0 24 24" fill="none" xmlns="http://www.w3.org/2000/svg">
<path d="M22.6087 18.6484L17.5275 13.865C17.2873 13.6389 16.9717 13.5184 16.6472 13.5288C16.3228 13.5392 16.015 13.6797 15.7887 13.9206L12.7975 17.1057C12.0775 16.9633 10.63 16.4961 9.13999 14.9573C7.64999 13.4133 7.19874 11.9107 7.06499 11.1704L10.1387 8.07201C10.3718 7.83792 10.5077 7.51914 10.5177 7.18314C10.5277 6.84714 10.4111 6.52028 10.1925 6.27174L5.57374 1.012C5.35504 0.762674 5.05108 0.611441 4.72643 0.590417C4.40177 0.569393 4.08198 0.680234 3.83499 0.899401L1.12249 3.30796C0.906375 3.53253 0.777386 3.83141 0.759986 4.14791C0.741236 4.47147 0.383736 12.1359 6.12374 18.0816C11.1312 23.2649 17.4037 23.6441 19.1312 23.6441C19.3837 23.6441 19.5387 23.6364 19.58 23.6338C19.8856 23.6161 20.1741 23.4819 20.39 23.2572L22.715 20.4474C22.9275 20.1925 23.0353 19.8616 23.0155 19.5255C22.9956 19.1894 22.8497 18.8746 22.6087 18.6484Z" fill="black"/>
</svg>
